<?xml version="1.0" encoding="UTF-8"?>
<svg version="1.1" xmlns="http://www.w3.org/2000/svg" width="219" height="69">
<path d="M0 0 C0.75925781 0.08378906 1.51851562 0.16757813 2.30078125 0.25390625 C3.29464844 0.35574219 4.28851563 0.45757813 5.3125 0.5625 C6.29863281 0.66691406 7.28476562 0.77132813 8.30078125 0.87890625 C11.09930347 1.16602527 11.09930347 1.16602527 14 0 C16.2265625 0.890625 16.2265625 0.890625 18.625 2.25 C19.42164063 2.68828125 20.21828125 3.1265625 21.0390625 3.578125 C23 5 23 5 24 8 C24.12375 8.804375 24.2475 9.60875 24.375 10.4375 C25.06360627 13.26078569 26.13230295 14.80748607 28 17 C26 18 26 18 23.875 17.375 C19.75370663 16.83744 16.7365727 18.35887502 13 20 C12.91080433 25.50464696 13.6099604 29.11154161 17.3125 33.3125 C18.52284656 34.56020293 19.7505431 35.79146418 21 37 C21.804375 37.825 22.60875 38.65 23.4375 39.5 C23.953125 39.995 24.46875 40.49 25 41 C22.50935112 41.68707555 20.62113708 42 18 42 C18.495 46.95 18.495 46.95 19 52 C22.465 50.02 22.465 50.02 26 48 C25.34 49.32 24.68 50.64 24 52 C25.65 52 27.3 52 29 52 C28.01 52.99 27.02 53.98 26 55 C28.475 56.98 28.475 56.98 31 59 C11.53 59 -7.94 59 -28 59 C-28 54.71 -28 50.42 -28 46 C-27.34 46 -26.68 46 -26 46 C-26.03927612 45.09290283 -26.03927612 45.09290283 -26.0793457 44.16748047 C-26.18385816 41.40358903 -26.24849273 38.640114 -26.3125 35.875 C-26.3753418 34.44800781 -26.3753418 34.44800781 -26.43945312 32.9921875 C-26.57762738 25.0333506 -26.57762738 25.0333506 -23.8046875 21.55859375 C-21.22754349 19.20757798 -18.70833303 17.12827766 -15.8125 15.1875 C-14.95269531 14.60355469 -14.09289062 14.01960938 -13.20703125 13.41796875 C-9.4748786 11.02014324 -7.3227433 10.89018358 -2.875 10.9375 C-1.77929688 10.94652344 -0.68359375 10.95554687 0.4453125 10.96484375 C1.28835937 10.97644531 2.13140625 10.98804688 3 11 C3.37644194 6.77649996 3.37644194 6.77649996 1.5 3.25 C1.005 2.8375 0.51 2.425 0 2 C0 1.34 0 0.68 0 0 Z M2 28 C2 29.32 2 30.64 2 32 C2.99 32 3.98 32 5 32 C4.34 30.68 3.68 29.36 3 28 C2.67 28 2.34 28 2 28 Z M-17 34 C-17 37.96 -17 41.92 -17 46 C-16.34 46 -15.68 46 -15 46 C-15.99 49.465 -15.99 49.465 -17 53 C-15.68798827 54.56249809 -15.68798827 54.56249809 -14 56 C-13.01 56 -12.02 56 -11 56 C-10.48654491 47.69914269 -11.29278005 41.48064025 -15 34 C-15.66 34 -16.32 34 -17 34 Z M6 34 C8.31232422 36.56249975 8.31232422 36.56249975 11 39 C11.99 39 12.98 39 14 39 C13.05125 38.175 12.1025 37.35 11.125 36.5 C10.59132813 36.0359375 10.05765625 35.571875 9.5078125 35.09375 C8.04063579 33.80427542 8.04063579 33.80427542 6 34 Z M-4 37 C-3.67 39.64 -3.34 42.28 -3 45 C-1.35 45.33 0.3 45.66 2 46 C1.34 48.31 0.68 50.62 0 53 C3.4724205 53.86810513 5.58131391 53.88224157 9 53 C11.125 53.4375 11.125 53.4375 13 54 C13.66 54 14.32 54 15 54 C15 50.04 15 46.08 15 42 C11.98155328 40.49077664 8.84665215 40.66592953 5.5078125 40.4765625 C2.61693864 39.92720641 1.28599601 38.78862449 -1 37 C-1.99 37 -2.98 37 -4 37 Z " fill="#0C0202" transform="translate(36,4)"/>
<path d="M0 0 C0.75925781 0.08378906 1.51851562 0.16757813 2.30078125 0.25390625 C3.29464844 0.35574219 4.28851563 0.45757813 5.3125 0.5625 C6.29863281 0.66691406 7.28476562 0.77132813 8.30078125 0.87890625 C11.09930347 1.16602527 11.09930347 1.16602527 14 0 C16.2265625 0.890625 16.2265625 0.890625 18.625 2.25 C19.42164063 2.68828125 20.21828125 3.1265625 21.0390625 3.578125 C23 5 23 5 24 8 C24.12375 8.804375 24.2475 9.60875 24.375 10.4375 C25.06360627 13.26078569 26.13230295 14.80748607 28 17 C26 18 26 18 23.875 17.375 C19.75370663 16.83744 16.7365727 18.35887502 13 20 C12.91080433 25.50464696 13.6099604 29.11154161 17.3125 33.3125 C18.52284656 34.56020293 19.7505431 35.79146418 21 37 C21.804375 37.825 22.60875 38.65 23.4375 39.5 C23.953125 39.995 24.46875 40.49 25 41 C21.67465243 42.10844919 19.37817425 41.84454356 16 41 C16 40.34 16 39.68 16 39 C15.38125 38.855625 14.7625 38.71125 14.125 38.5625 C12 38 12 38 10 37 C10.99 38.32 11.98 39.64 13 41 C8.02169438 41.87471313 4.40036524 41.90502328 0.0625 39.1015625 C-1.81146389 37.52804391 -3.65378419 35.91580505 -5.45703125 34.26171875 C-7.85517817 32.12880467 -10.20146592 30.55250814 -13 29 C-12.7834375 28.38511719 -12.566875 27.77023438 -12.34375 27.13671875 C-12.0653125 26.32847656 -11.786875 25.52023438 -11.5 24.6875 C-11.2215625 23.88699219 -10.943125 23.08648438 -10.65625 22.26171875 C-9.86066893 19.91230578 -9.86066893 19.91230578 -10 17 C-10.99 17.99 -11.98 18.98 -13 20 C-13.99 19.34 -14.98 18.68 -16 18 C-14.53113762 14.12754464 -12.68378216 12.80096017 -9 11 C-5.88671875 10.70703125 -5.88671875 10.70703125 -2.6875 10.8125 C-1.08455078 10.85310547 -1.08455078 10.85310547 0.55078125 10.89453125 C1.35902344 10.92933594 2.16726562 10.96414063 3 11 C3.37644194 6.77649996 3.37644194 6.77649996 1.5 3.25 C1.005 2.8375 0.51 2.425 0 2 C0 1.34 0 0.68 0 0 Z M2 28 C2 29.32 2 30.64 2 32 C2.99 32 3.98 32 5 32 C4.34 30.68 3.68 29.36 3 28 C2.67 28 2.34 28 2 28 Z " fill="#251E1D" transform="translate(36,4)"/>
<path d="M0 0 C0.66 0 1.32 0 2 0 C4.10827055 3.16240582 4.33817465 4.50657469 4.625 8.1875 C4.69976562 9.08855469 4.77453125 9.98960938 4.8515625 10.91796875 C4.90054688 11.60503906 4.94953125 12.29210938 5 13 C8.465 11.02 8.465 11.02 12 9 C11.34 10.32 10.68 11.64 10 13 C11.65 13 13.3 13 15 13 C14.01 13.99 13.02 14.98 12 16 C14.475 17.98 14.475 17.98 17 20 C-2.47 20 -21.94 20 -42 20 C-42 15.71 -42 11.42 -42 7 C-41.67 7 -41.34 7 -41 7 C-41 10.63 -41 14.26 -41 18 C-37.37 18 -33.74 18 -30 18 C-30 17.34 -30 16.68 -30 16 C-28.35 16.33 -26.7 16.66 -25 17 C-25 13.04 -25 9.08 -25 5 C-24.67 5 -24.34 5 -24 5 C-24 9.29 -24 13.58 -24 18 C-20.37 18 -16.74 18 -13 18 C-12.67 16.68 -12.34 15.36 -12 14 C-10.02 14 -8.04 14 -6 14 C-6.495 13.01 -6.495 13.01 -7 12 C-1.25 13.875 -1.25 13.875 1 15 C1 11.04 1 7.08 1 3 C0.34 3 -0.32 3 -1 3 C-0.67 2.01 -0.34 1.02 0 0 Z " fill="#300000" transform="translate(50,43)"/>
<path d="M0 0 C0.75925781 0.08378906 1.51851562 0.16757813 2.30078125 0.25390625 C3.29464844 0.35574219 4.28851563 0.45757813 5.3125 0.5625 C6.29863281 0.66691406 7.28476562 0.77132813 8.30078125 0.87890625 C11.09930347 1.16602527 11.09930347 1.16602527 14 0 C16.2265625 0.890625 16.2265625 0.890625 18.625 2.25 C19.42164062 2.68828125 20.21828125 3.1265625 21.0390625 3.578125 C23 5 23 5 24 8 C24.12375 8.804375 24.2475 9.60875 24.375 10.4375 C25.06360627 13.26078569 26.13230295 14.80748607 28 17 C26 18 26 18 23.8125 17.5 C20.91109859 16.83069737 20.91109859 16.83069737 17.625 17.5 C13.81570868 18.02541949 10.76385949 17.69132113 7 17 C7 16.01 7 15.02 7 14 C7.66 14 8.32 14 9 14 C8.67 13.34 8.34 12.68 8 12 C8.99 12 9.98 12 11 12 C11 11.34 11 10.68 11 10 C9.68 9.67 8.36 9.34 7 9 C7 9.66 7 10.32 7 11 C6.34 11 5.68 11 5 11 C5 10.34 5 9.68 5 9 C4.34 9 3.68 9 3 9 C2.87625 8.2575 2.7525 7.515 2.625 6.75 C2.0421624 4.18551458 1.21335551 2.30833488 0 0 Z " fill="#D0BEBC" transform="translate(36,4)"/>
<path d="M0 0 C1.7093101 2.81621669 2.73536376 5.83449163 3.8125 8.9375 C4.12380859 9.77474609 4.43511719 10.61199219 4.75585938 11.47460938 C7 17.60530563 7 17.60530563 7 20 C4.69 20 2.38 20 0 20 C-0.33 19.01 -0.66 18.02 -1 17 C-2.98 17 -4.96 17 -7 17 C-7.33 17.99 -7.66 18.98 -8 20 C-10.31 20 -12.62 20 -15 20 C-13.52361085 14.74315986 -11.91859742 9.55130006 -10 4.4375 C-9.5359375 3.19806641 -9.5359375 3.19806641 -9.0625 1.93359375 C-7.01130995 -1.79927049 -3.49797989 -1.53739698 0 0 Z " fill="#FDEEED" transform="translate(121,10)"/>
<path d="M0 0 C-0.20496094 0.56847656 -0.40992188 1.13695313 -0.62109375 1.72265625 C-2.29092669 6.5084454 -3.46376936 10.95943201 -4 16 C-3.27554688 16.51949219 -2.55109375 17.03898437 -1.8046875 17.57421875 C8.62222692 25.09549968 8.62222692 25.09549968 13 29 C13 29.33 13 29.66 13 30 C8.02169438 30.87471313 4.40036524 30.90502328 0.0625 28.1015625 C-1.81146389 26.52804391 -3.65378419 24.91580505 -5.45703125 23.26171875 C-7.85517817 21.12880467 -10.20146592 19.55250814 -13 18 C-12.7834375 17.38511719 -12.566875 16.77023438 -12.34375 16.13671875 C-11.92609375 14.92435547 -11.92609375 14.92435547 -11.5 13.6875 C-11.2215625 12.88699219 -10.943125 12.08648437 -10.65625 11.26171875 C-9.86066893 8.91230578 -9.86066893 8.91230578 -10 6 C-10.99 6.99 -11.98 7.98 -13 9 C-13.99 8.34 -14.98 7.68 -16 7 C-15.0195412 4.41515408 -14.06077857 3.05156969 -11.9375 1.25 C-7.9103375 -0.46368617 -4.31479896 -0.2538117 0 0 Z " fill="#F7F5F5" transform="translate(36,15)"/>
<path d="M0 0 C2.64 0 5.28 0 8 0 C8.79211929 1.89564426 9.58367576 3.79152371 10.375 5.6875 C10.81585938 6.74324219 11.25671875 7.79898437 11.7109375 8.88671875 C12.13632813 9.91410156 12.56171875 10.94148438 13 12 C13.38414062 12.89332031 13.76828125 13.78664063 14.1640625 14.70703125 C15 17 15 17 15 20 C12.69 20 10.38 20 8 20 C7.67 19.01 7.34 18.02 7 17 C5.02 17 3.04 17 1 17 C0.67 17.99 0.34 18.98 0 20 C-2.31 20 -4.62 20 -7 20 C-5.07443364 13.14381674 -2.7527517 6.56747868 0 0 Z M4 9 C5 11 5 11 5 11 Z " fill="#FDF7F7" transform="translate(178,10)"/>
<path d="M0 0 C5.61 0 11.22 0 17 0 C15.875 7.875 15.875 7.875 12.9375 11.4375 C12.38964844 12.11683594 11.84179688 12.79617187 11.27734375 13.49609375 C10.85582031 13.99238281 10.43429688 14.48867188 10 15 C12.31 15 14.62 15 17 15 C17 16.65 17 18.3 17 20 C11.39 20 5.78 20 0 20 C0 14.64962552 0.28569398 14.03318756 3.5 10.1875 C4.1496875 9.39730469 4.799375 8.60710938 5.46875 7.79296875 C6.22671875 6.90544922 6.22671875 6.90544922 7 6 C4.69 5.67 2.38 5.34 0 5 C0 3.35 0 1.7 0 0 Z " fill="#FDF0EF" transform="translate(141,10)"/>
<path d="M0 0 C6.27 0 12.54 0 19 0 C19 1.65 19 3.3 19 5 C17.02 5 15.04 5 13 5 C13 9.95 13 14.9 13 20 C10.69 20 8.38 20 6 20 C5.67 15.38 5.34 10.76 5 6 C3.35 5.67 1.7 5.34 0 5 C0 3.35 0 1.7 0 0 Z " fill="#FDEFED" transform="translate(76,10)"/>
<path d="M0 0 C0.20753906 0.71285156 0.41507813 1.42570312 0.62890625 2.16015625 C2.86948132 9.12562604 5.4692236 13.27766656 11 18 C12.00800419 18.99193123 13.01058113 19.98952966 14 21 C10.67465243 22.10844919 8.37817425 21.84454356 5 21 C5 20.34 5 19.68 5 19 C4.42636719 18.88011719 3.85273437 18.76023437 3.26171875 18.63671875 C-0.64051239 17.53816318 -3.89888783 15.59709394 -7 13 C-8.375 10.125 -8.375 10.125 -8 7 C-3.55443548 0 -3.55443548 0 0 0 Z " fill="#F5E3E0" transform="translate(47,24)"/>
<path d="M0 0 C1.588125 -0.061875 3.17625 -0.12375 4.8125 -0.1875 C6.15248047 -0.23970703 6.15248047 -0.23970703 7.51953125 -0.29296875 C10 0 10 0 11.8046875 1.1328125 C13.52082725 3.81357983 13.36234012 5.90723708 13.3125 9.0625 C13.30863281 10.12597656 13.30476563 11.18945312 13.30078125 12.28515625 C13 15 13 15 11 17 C7.31975395 17.27629475 3.69505443 17.0859315 0 17 C0 11.39 0 5.78 0 0 Z M4 3 C4 4.32 4 5.64 4 7 C5.65 6.67 7.3 6.34 9 6 C8.67 5.01 8.34 4.02 8 3 C6.68 3 5.36 3 4 3 Z M4 10 C4 11.65 4 13.3 4 15 C5.65 14.67 7.3 14.34 9 14 C9 12.68 9 11.36 9 10 C7.35 10 5.7 10 4 10 Z " fill="#FEE5E3" transform="translate(79,37)"/>
<path d="M0 0 C1.60875 -0.04125 3.2175 -0.0825 4.875 -0.125 C5.77992188 -0.14820313 6.68484375 -0.17140625 7.6171875 -0.1953125 C10 0 10 0 12 2 C12.2763445 5.1779618 12.42532883 7.26127098 10.8125 10.0625 C10.544375 10.701875 10.27625 11.34125 10 12 C11.28184562 14.74832154 11.28184562 14.74832154 13 17 C10.21788056 16.62403791 8.4120716 16.32681541 6.1875 14.5625 C5 13 5 13 5 11 C4.34 11 3.68 11 3 11 C3 12.98 3 14.96 3 17 C2.01 17 1.02 17 0 17 C0 11.39 0 5.78 0 0 Z M4 3 C3.67 4.32 3.34 5.64 3 7 C4.65 7 6.3 7 8 7 C8 5.68 8 4.36 8 3 C6.68 3 5.36 3 4 3 Z " fill="#FEEDEE" transform="translate(196,37)"/>
<path d="M0 0 C1.32 0 2.64 0 4 0 C5.0067004 2.26807204 6.00551766 4.53907754 7 6.8125 C7.28617188 7.45509766 7.57234375 8.09769531 7.8671875 8.75976562 C9.13711041 11.67756469 10 13.78265714 10 17 C8.68 17 7.36 17 6 17 C6 16.01 6 15.02 6 14 C3.6568787 14.25561323 1.32156597 14.59270772 -1 15 C-1.33 15.66 -1.66 16.32 -2 17 C-3.32 17 -4.64 17 -6 17 C-4.13236819 11.27789404 -2.14710968 5.62338249 0 0 Z M2 7 C1.67 8.32 1.34 9.64 1 11 C1.99 11 2.98 11 4 11 C3.34 9.68 2.68 8.36 2 7 Z " fill="#FDEAE8" transform="translate(170,37)"/>
<path d="M0 0 C1.32 0 2.64 0 4 0 C5.00419637 2.4566947 6.00350501 4.91518353 7 7.375 C7.28617188 8.07367188 7.57234375 8.77234375 7.8671875 9.4921875 C10 14.7734375 10 14.7734375 10 17 C8.68 17 7.36 17 6 17 C5.67 16.34 5.34 15.68 5 15 C2.67843403 14.59270772 0.3431213 14.25561323 -2 14 C-2 14.99 -2 15.98 -2 17 C-3.65 17 -5.3 17 -7 17 C-4.69 11.39 -2.38 5.78 0 0 Z M1 7 C0.67 8.32 0.34 9.64 0 11 C0.99 11 1.98 11 3 11 C2.67 9.68 2.34 8.36 2 7 C1.67 7 1.34 7 1 7 Z " fill="#FEE2E0" transform="translate(113,37)"/>
<path d="M0 0 C4.29 0 8.58 0 13 0 C11.4655333 3.83616676 10.15341734 6.49393561 7.875 9.8125 C7.06675781 10.99779297 7.06675781 10.99779297 6.2421875 12.20703125 C5.83226562 12.79871094 5.42234375 13.39039063 5 14 C7.31 14.33 9.62 14.66 12 15 C12 15.66 12 16.32 12 17 C7.71 17 3.42 17 -1 17 C0.41998861 13.45002848 1.6121589 10.81270066 3.625 7.6875 C4.07101563 6.99011719 4.51703125 6.29273438 4.9765625 5.57421875 C5.48316406 4.79498047 5.48316406 4.79498047 6 4 C3.03 3.505 3.03 3.505 0 3 C0 2.01 0 1.02 0 0 Z " fill="#FEE7E6" transform="translate(138,37)"/>
<path d="M0 0 C2.34765625 0.890625 2.34765625 0.890625 5.0625 2.25 C6.41021484 2.90742187 6.41021484 2.90742187 7.78515625 3.578125 C10 5 10 5 11 8 C11.2475 9.2684375 11.2475 9.2684375 11.5 10.5625 C11.88942398 12.99414942 11.88942398 12.99414942 13 15 C8.29212905 12.69630504 3.78824038 10.05519995 -0.75 7.4375 C-1.63816406 6.93025391 -2.52632812 6.42300781 -3.44140625 5.90039062 C-4.28058594 5.41634766 -5.11976562 4.93230469 -5.984375 4.43359375 C-6.75491211 3.99072021 -7.52544922 3.54784668 -8.31933594 3.09155273 C-8.87395508 2.73134033 -9.42857422 2.37112793 -10 2 C-10 1.67 -10 1.34 -10 1 C-7.98177083 1.03255208 -5.96354167 1.06510417 -3.9453125 1.09765625 C-1.91814596 1.12649242 -1.91814596 1.12649242 0 0 Z " fill="#F7E8E6" transform="translate(49,4)"/>
<path d="M0 0 C6.42836569 3.80940189 12.37507604 8.06666505 18 13 C18 13.33 18 13.66 18 14 C13.0968829 14.75111581 9.42908989 14.88062836 5.109375 12.21875 C2.65075526 10.2237557 0.29145871 8.18419894 -2 6 C-1.34 4.02 -0.68 2.04 0 0 Z " fill="#F6E7E3" transform="translate(31,31)"/>
<path d="M0 0 C2.64 0 5.28 0 8 0 C8.79211929 1.89564426 9.58367576 3.79152371 10.375 5.6875 C10.81585938 6.74324219 11.25671875 7.79898437 11.7109375 8.88671875 C12.34902344 10.42779297 12.34902344 10.42779297 13 12 C13.38414062 12.89332031 13.76828125 13.78664063 14.1640625 14.70703125 C15 17 15 17 15 20 C12.69 20 10.38 20 8 20 C7.67 19.01 7.34 18.02 7 17 C7.66 17 8.32 17 9 17 C9 17.66 9 18.32 9 19 C10.32 19 11.64 19 13 19 C12.67515625 18.18595703 12.67515625 18.18595703 12.34375 17.35546875 C12.0653125 16.64003906 11.786875 15.92460937 11.5 15.1875 C11.2215625 14.47980469 10.943125 13.77210937 10.65625 13.04296875 C10 11 10 11 10 8 C9.01 8 8.02 8 7 8 C7 9.32 7 10.64 7 12 C5.68 12 4.36 12 3 12 C3 10.35 3 8.7 3 7 C4.65 6.67 6.3 6.34 8 6 C7.67 4.35 7.34 2.7 7 1 C5.02 1 3.04 1 1 1 C0.896875 1.928125 0.79375 2.85625 0.6875 3.8125 C0 7 0 7 -3 10 C-2.01 6.7 -1.02 3.4 0 0 Z M4 9 C5 11 5 11 5 11 Z " fill="#FDDDDB" transform="translate(178,10)"/>
<path d="M0 0 C1.47919922 0.06960937 1.47919922 0.06960937 2.98828125 0.140625 C3.98214844 0.17671875 4.97601563 0.2128125 6 0.25 C7.13888672 0.31960937 7.13888672 0.31960937 8.30078125 0.390625 C6.65078125 2.040625 5.00078125 3.690625 3.30078125 5.390625 C2.97078125 4.730625 2.64078125 4.070625 2.30078125 3.390625 C-1.5697315 6.46944196 -4.72833257 9.39135514 -7.69921875 13.390625 C-9.57421875 13.078125 -9.57421875 13.078125 -11.69921875 12.390625 C-12.35921875 11.400625 -13.01921875 10.410625 -13.69921875 9.390625 C-13.15652344 9.07609375 -12.61382812 8.7615625 -12.0546875 8.4375 C-11.33925781 8.00953125 -10.62382813 7.5815625 -9.88671875 7.140625 C-9.17902344 6.72296875 -8.47132812 6.3053125 -7.7421875 5.875 C-5.58203164 4.49096406 -5.58203164 4.49096406 -4.29296875 2.234375 C-2.69921875 0.390625 -2.69921875 0.390625 0 0 Z " fill="#1D0F0F" transform="translate(44.69921875,20.609375)"/>
<path d="M0 0 C-0.8125 2.9375 -0.8125 2.9375 -2 6 C-5 7 -5 7 -7.1875 6.0625 C-7.785625 5.711875 -8.38375 5.36125 -9 5 C-10.32 6.32 -11.64 7.64 -13 9 C-13.99 8.34 -14.98 7.68 -16 7 C-15.0195412 4.41515408 -14.06077857 3.05156969 -11.9375 1.25 C-7.9103375 -0.46368617 -4.31479896 -0.2538117 0 0 Z " fill="#F9E9E7" transform="translate(36,15)"/>
<path d="M0 0 C2.96527758 2.4453385 3.55582214 4.44602347 4.1875 8.1875 C4.34605469 9.08855469 4.50460938 9.98960938 4.66796875 10.91796875 C4.77753906 11.60503906 4.88710937 12.29210938 5 13 C3.35 12.67 1.7 12.34 0 12 C0 11.34 0 10.68 0 10 C-2.31 10 -4.62 10 -7 10 C-6.34 9.67 -5.68 9.34 -5 9 C-5.33 7.02 -5.66 5.04 -6 3 C-5.67 3.99 -5.34 4.98 -5 6 C-4.01 6 -3.02 6 -2 6 C-1.855625 5.195625 -1.71125 4.39125 -1.5625 3.5625 C-1 1 -1 1 0 0 Z " fill="#FDF8F8" transform="translate(121,16)"/>
<path d="M0 0 C2.28709899 0.40841053 3.805385 0.85347169 5.67578125 2.26171875 C8.78838888 4.58963538 12.09595751 6.52055254 15.4375 8.5 C16.09298828 8.89058594 16.74847656 9.28117188 17.42382812 9.68359375 C18.69723694 10.44227463 19.97114284 11.20012195 21.24560547 11.95703125 C23.50114008 13.29792241 25.75108115 14.64804878 28 16 C27.34 16.66 26.68 17.32 26 18 C23.69 17.01 21.38 16.02 19 15 C19 14.34 19 13.68 19 13 C18.34 12.7525 17.68 12.505 17 12.25 C13.23639093 10.68182955 9.6288576 8.85494954 6 7 C6 6.34 6 5.68 6 5 C5.195625 4.731875 4.39125 4.46375 3.5625 4.1875 C2.716875 3.795625 1.87125 3.40375 1 3 C0.67 2.01 0.34 1.02 0 0 Z " fill="#371B1A" transform="translate(36,4)"/>
<path d="M0 0 C1.890625 0.21484375 1.890625 0.21484375 4 1 C5.046875 3.06640625 5.046875 3.06640625 5.75 5.5625 C5.99234375 6.38878906 6.2346875 7.21507812 6.484375 8.06640625 C6.65453125 8.70449219 6.8246875 9.34257813 7 10 C5.68 10 4.36 10 3 10 C2.67 9.34 2.34 8.68 2 8 C-0.64 8 -3.28 8 -6 8 C-6 6.35 -6 4.7 -6 3 C-5.34 2.67 -4.68 2.34 -4 2 C-4 2.66 -4 3.32 -4 4 C-2.68 4 -1.36 4 0 4 C0 2.68 0 1.36 0 0 Z " fill="#FEF3F3" transform="translate(116,44)"/>
<path d="M0 0 C0.99 2.97 1.98 5.94 3 9 C2.01 8.34 1.02 7.68 0 7 C-0.66 8.65 -1.32 10.3 -2 12 C-2.99 11.67 -3.98 11.34 -5 11 C-4.25 4.375 -4.25 4.375 -2 1 C-3.91466367 1.12177688 -3.91466367 1.12177688 -6 2 C-7.77148372 4.47933197 -7.77148372 4.47933197 -9 7 C-10 5 -10 5 -9.25 2.4375 C-7.02988727 -1.89171983 -4.16556253 -1.01324494 0 0 Z " fill="#FDE5E1" transform="translate(121,10)"/>
<path d="M0 0 C0.33 0 0.66 0 1 0 C1 4.29 1 8.58 1 13 C4.63 13 8.26 13 12 13 C12.33 12.01 12.66 11.02 13 10 C13.56170898 10.32597168 14.12341797 10.65194336 14.70214844 10.98779297 C17.27268991 12.12012031 18.97137519 12.23113622 21.765625 12.1953125 C23.09980469 12.18564453 23.09980469 12.18564453 24.4609375 12.17578125 C25.38132812 12.15902344 26.30171875 12.14226563 27.25 12.125 C28.65378906 12.11146484 28.65378906 12.11146484 30.0859375 12.09765625 C32.39088657 12.07413636 34.6953116 12.04126853 37 12 C37 12.66 37 13.32 37 14 C23.47 14 9.94 14 -4 14 C-2.68 13.67 -1.36 13.34 0 13 C0 8.71 0 4.42 0 0 Z " fill="#220000" transform="translate(25,48)"/>
<path d="M0 0 C1.98 0 3.96 0 6 0 C4.68 0.33 3.36 0.66 2 1 C2 2.65 2 4.3 2 6 C3.65 5.67 5.3 5.34 7 5 C7.33 3.68 7.66 2.36 8 1 C9.32 1.33 10.64 1.66 12 2 C11.37240135 4.92879371 10.41377341 7.36095629 9 10 C9 9.34 9 8.68 9 8 C6.69 8 4.38 8 2 8 C1.67 8.66 1.34 9.32 1 10 C0 9 0 9 -0.09765625 6.93359375 C-0.08605469 6.10988281 -0.07445313 5.28617188 -0.0625 4.4375 C-0.05347656 3.61121094 -0.04445313 2.78492188 -0.03515625 1.93359375 C-0.02355469 1.29550781 -0.01195313 0.65742187 0 0 Z " fill="#FEF1F0" transform="translate(80,38)"/>
<path d="M0 0 C0.99 0 1.98 0 3 0 C3.50615298 1.26839526 4.00469099 2.53983102 4.5 3.8125 C4.7784375 4.52019531 5.056875 5.22789063 5.34375 5.95703125 C6 8 6 8 6 11 C4.68 11 3.36 11 2 11 C1.34 10.01 0.68 9.02 0 8 C-2.56282742 7.27034634 -2.56282742 7.27034634 -5 7 C-5 6.34 -5 5.68 -5 5 C-3.68 4.67 -2.36 4.34 -1 4 C-0.67 2.68 -0.34 1.36 0 0 Z " fill="#FCFBFB" transform="translate(185,18)"/>
<path d="M0 0 C3.3 0 6.6 0 10 0 C10.33 0.66 10.66 1.32 11 2 C4.9453125 2.9765625 4.9453125 2.9765625 3 3 C2.34 2.34 1.68 1.68 1 1 C1 3.64 1 6.28 1 9 C1.99 9.33 2.98 9.66 4 10 C3.67 12.31 3.34 14.62 3 17 C2.01 17 1.02 17 0 17 C0 11.39 0 5.78 0 0 Z " fill="#FDE3E3" transform="translate(196,37)"/>
<path d="M0 0 C1 2 1 2 0.25 5.4375 C-1 9 -1 9 -4 12 C0.95 12 5.9 12 11 12 C11 12.33 11 12.66 11 13 C5.39 13 -0.22 13 -6 13 C-6 7.89685455 -5.95896045 7.32455555 -3 3.6875 C-2.443125 2.99011719 -1.88625 2.29273438 -1.3125 1.57421875 C-0.6628125 0.79498047 -0.6628125 0.79498047 0 0 Z " fill="#FEE7E7" transform="translate(147,17)"/>
<path d="M0 0 C5.04095775 0.44479039 7.41115715 2.66154153 11 6 C11 6.33 11 6.66 11 7 C7.7 7 4.4 7 1 7 C0.67 4.69 0.34 2.38 0 0 Z " fill="#FEDBD7" transform="translate(38,38)"/>
<path d="M0 0 C2.4375 0.8125 2.4375 0.8125 5 2 C6 5 6 5 6.5 7.5625 C6.88942398 9.99414942 6.88942398 9.99414942 8 12 C4.22272911 10.18690997 0.62730178 8.0926741 -3 6 C-2.01 5.01 -1.02 4.02 0 3 C0 3.66 0 4.32 0 5 C0.66 5 1.32 5 2 5 C1.34 3.35 0.68 1.7 0 0 Z " fill="#F5DFDA" transform="translate(54,7)"/>
<path d="M0 0 C0.66 0 1.32 0 2 0 C4.28062828 3.42094242 4.21925007 4.68187222 4.125 8.6875 C4.10695313 9.68136719 4.08890625 10.67523438 4.0703125 11.69921875 C4.03550781 12.83810547 4.03550781 12.83810547 4 14 C3.01 14.33 2.02 14.66 1 15 C1 11.04 1 7.08 1 3 C0.34 3 -0.32 3 -1 3 C-0.67 2.01 -0.34 1.02 0 0 Z " fill="#200000" transform="translate(50,43)"/>
<path d="M0 0 C1.60875 -0.020625 3.2175 -0.04125 4.875 -0.0625 C5.77992187 -0.07410156 6.68484375 -0.08570313 7.6171875 -0.09765625 C10 0 10 0 12 1 C11.67 1.66 11.34 2.32 11 3 C10.34 2.67 9.68 2.34 9 2 C8.67 2.66 8.34 3.32 8 4 C6.68 3.67 5.36 3.34 4 3 C3.67 4.32 3.34 5.64 3 7 C3 5.35 3 3.7 3 2 C2.34 1.67 1.68 1.34 1 1 C1 6.28 1 11.56 1 17 C0.67 17 0.34 17 0 17 C0 11.39 0 5.78 0 0 Z " fill="#FED3D2" transform="translate(79,37)"/>
<path d="M0 0 C0 1.32 0 2.64 0 4 C2.64 4 5.28 4 8 4 C8.33 4.66 8.66 5.32 9 6 C4.05 6 -0.9 6 -6 6 C-4.90218919 2.70656758 -3.7827394 0 0 0 Z " fill="#FBFCFB" transform="translate(149,23)"/>
<path d="M0 0 C0.66 0 1.32 0 2 0 C2.66 1.32 3.32 2.64 4 4 C2.35 5.65 0.7 7.3 -1 9 C-1.99 8.67 -2.98 8.34 -4 8 C-3.40312566 4.65750371 -2.26396123 2.53563658 0 0 Z " fill="#F1ECED" transform="translate(38,19)"/>
<path d="M0 0 C1.32 0.33 2.64 0.66 4 1 C4 1.99 4 2.98 4 4 C-0.97063121 4.91297308 -5.02936879 4.91297308 -10 4 C-10 3.01 -10 2.02 -10 1 C-9.67 1.33 -9.34 1.66 -9 2 C-7.48071962 2.07179964 -5.95832518 2.08392007 -4.4375 2.0625 C-3.19806641 2.04896484 -3.19806641 2.04896484 -1.93359375 2.03515625 C-0.97646484 2.01775391 -0.97646484 2.01775391 0 2 C0 1.34 0 0.68 0 0 Z " fill="#F2DCDB" transform="translate(53,17)"/>
<path d="M0 0 C1.32 0.66 2.64 1.32 4 2 C2.35 3.98 0.7 5.96 -1 8 C-2.32 7.34 -3.64 6.68 -5 6 C-3.63016497 2.83884224 -3.0109362 2.0072908 0 0 Z " fill="#F5DEE0" transform="translate(25,16)"/>
<path d="M0 0 C5.75 1.75 5.75 1.75 8 4 C4.62182575 4.84454356 2.32534757 5.10844919 -1 4 C-1 4.66 -1 5.32 -1 6 C-1.66 6 -2.32 6 -3 6 C-3.66 4.68 -4.32 3.36 -5 2 C-3.02 2 -1.04 2 1 2 C0.67 1.34 0.34 0.68 0 0 Z " fill="#390201" transform="translate(43,55)"/>
<path d="M0 0 C2.6855594 2.6855594 3.06049974 5.37621328 4 9 C2.68 9 1.36 9 0 9 C-0.33 8.34 -0.66 7.68 -1 7 C-3.32156597 6.59270772 -5.6568787 6.25561323 -8 6 C-8 5.67 -8 5.34 -8 5 C-5.36 5 -2.72 5 0 5 C0 3.35 0 1.7 0 0 Z " fill="#FFE1DE" transform="translate(119,45)"/>
<path d="M0 0 C1.32 0 2.64 0 4 0 C5.35439668 2.70879335 5.06501451 5.00933268 5 8 C4.01 7.34 3.02 6.68 2 6 C1.34 6 0.68 6 0 6 C0 4.02 0 2.04 0 0 Z " fill="#FDEBE9" transform="translate(170,37)"/>
<path d="M0 0 C1.32 0.33 2.64 0.66 4 1 C4 1.66 4 2.32 4 3 C3.01 3.495 3.01 3.495 2 4 C4.475 4.99 4.475 4.99 7 6 C7 6.33 7 6.66 7 7 C3.65747276 7.07427838 1.1964086 7.06546953 -2 6 C-2 4.68 -2 3.36 -2 2 C-1.34 2 -0.68 2 0 2 C0 1.34 0 0.68 0 0 Z " fill="#635756" transform="translate(43,13)"/>
<path d="M0 0 C1.9451 2.91765 2.45276317 4.62537285 3 8 C1.68 8 0.36 8 -1 8 C-1 7.01 -1 6.02 -1 5 C-3.31 5 -5.62 5 -8 5 C-8 4.67 -8 4.34 -8 4 C-4.535 3.505 -4.535 3.505 -1 3 C-0.67 2.01 -0.34 1.02 0 0 Z " fill="#FFDEDA" transform="translate(177,46)"/>
<path d="M0 0 C0.5625 1.9375 0.5625 1.9375 1 4 C0.67 4.33 0.34 4.66 0 5 C-0.15582303 6.34015221 -0.25044142 7.68758903 -0.31640625 9.03515625 C-0.37924805 10.24848633 -0.37924805 10.24848633 -0.44335938 11.48632812 C-0.48267578 12.33646484 -0.52199219 13.18660156 -0.5625 14.0625 C-0.60568359 14.91650391 -0.64886719 15.77050781 -0.69335938 16.65039062 C-0.79976702 18.76672037 -0.90041731 20.88333813 -1 23 C-1.33 23 -1.66 23 -2 23 C-2.0580476 19.72924117 -2.09361165 16.45861476 -2.125 13.1875 C-2.14175781 12.25873047 -2.15851562 11.32996094 -2.17578125 10.37304688 C-2.18222656 9.48037109 -2.18867188 8.58769531 -2.1953125 7.66796875 C-2.20578613 6.84578857 -2.21625977 6.0236084 -2.22705078 5.17651367 C-2 3 -2 3 0 0 Z " fill="#340000" transform="translate(12,26)"/>
<path d="M0 0 C0.66 0.33 1.32 0.66 2 1 C1.01 2.485 1.01 2.485 0 4 C2.31 4 4.62 4 7 4 C6.67 4.99 6.34 5.98 6 7 C3.36 6.67 0.72 6.34 -2 6 C-1.34 4.02 -0.68 2.04 0 0 Z " fill="#FEE1DC" transform="translate(151,21)"/>
<path d="M0 0 C0 0.99 0 1.98 0 3 C1.1490712 4.2981424 1.1490712 4.2981424 4 5 C0.88228073 6.60339848 -0.39011689 7.18974141 -3.8125 6.125 C-4.534375 5.75375 -5.25625 5.3825 -6 5 C-2.25 1.125 -2.25 1.125 0 0 Z " fill="#530000" transform="translate(61,52)"/>
<path d="M0 0 C0.33 0.99 0.66 1.98 1 3 C1.99 3 2.98 3 4 3 C4.33 2.01 4.66 1.02 5 0 C7.31 0 9.62 0 12 0 C12 0.33 12 0.66 12 1 C10.35 1 8.7 1 7 1 C6.67 1.99 6.34 2.98 6 4 C3.69 4 1.38 4 -1 4 C-0.67 2.68 -0.34 1.36 0 0 Z " fill="#FEE0DB" transform="translate(172,26)"/>
<path d="M0 0 C3.35595828 0.59927826 5.37801226 1.84622436 8 4 C7.67 4.99 7.34 5.98 7 7 C6.67 6.34 6.34 5.68 6 5 C5.175 4.690625 4.35 4.38125 3.5 4.0625 C2.675 3.711875 1.85 3.36125 1 3 C0.67 2.01 0.34 1.02 0 0 Z " fill="#461012" transform="translate(36,4)"/>
<path d="M0 0 C0.66 0 1.32 0 2 0 C3.10370043 3.3111013 2.92673641 5.24748949 2.5625 8.6875 C2.40974609 10.17830078 2.40974609 10.17830078 2.25390625 11.69921875 C2.12822266 12.83810547 2.12822266 12.83810547 2 14 C1.67 14 1.34 14 1 14 C1 10.37 1 6.74 1 3 C0.34 3 -0.32 3 -1 3 C-0.67 2.01 -0.34 1.02 0 0 Z " fill="#5E1E18" transform="translate(50,43)"/>
<path d="M0 0 C2.52588702 2.36292656 3.88820837 3.66462511 5 7 C2.5625 6.625 2.5625 6.625 0 6 C-1.24546405 3.50907189 -0.7767578 2.58919267 0 0 Z " fill="#FFE3E2" transform="translate(204,47)"/>
<path d="M0 0 C1 2 1 2 0.44140625 3.9453125 C0.15136719 4.66460938 -0.13867188 5.38390625 -0.4375 6.125 C-0.72496094 6.84945313 -1.01242188 7.57390625 -1.30859375 8.3203125 C-1.53675781 8.87460937 -1.76492187 9.42890625 -2 10 C-3.1875 8.3125 -3.1875 8.3125 -4 6 C-2.87755007 3.70165014 -1.81522119 1.81522119 0 0 Z " fill="#2A1D1E" transform="translate(27,19)"/>
<path d="M0 0 C0.66 2.64 1.32 5.28 2 8 C1.01 8 0.02 8 -1 8 C-1 7.34 -1 6.68 -1 6 C-2.32 5.34 -3.64 4.68 -5 4 C-1.125 0 -1.125 0 0 0 Z " fill="#4B2624" transform="translate(41,13)"/>
<path d="M0 0 C0.185625 0.9590625 0.185625 0.9590625 0.375 1.9375 C0.684375 2.9584375 0.684375 2.9584375 1 4 C1.66 4.33 2.32 4.66 3 5 C2.67 5.66 2.34 6.32 2 7 C0.68 7 -0.64 7 -2 7 C-1.34 4.69 -0.68 2.38 0 0 Z " fill="#FFE4E1" transform="translate(166,47)"/>
<path d="M0 0 C2.31 1.98 4.62 3.96 7 6 C6.01 6.495 6.01 6.495 5 7 C4.01 6.67 3.02 6.34 2 6 C0.8125 2.9375 0.8125 2.9375 0 0 Z " fill="#FEEBDF" transform="translate(50,35)"/>
</svg>
